<svg width="29" height="29" viewBox="0 0 29 29" fill="none" xmlns="http://www.w3.org/2000/svg">
<path fill-rule="evenodd" clip-rule="evenodd" d="M3.04143 9.45256C2.41406 10.5987 2.41406 11.9813 2.41406 14.7465V16.5845C2.41406 21.2979 2.41406 23.6548 3.82971 25.119C5.24537 26.5834 7.52381 26.5834 12.0807 26.5834H16.9141C21.4709 26.5834 23.7495 26.5834 25.165 25.119C26.5807 23.6548 26.5807 21.2979 26.5807 16.5845V14.7465C26.5807 11.9813 26.5807 10.5987 25.9534 9.45256C25.326 8.30642 24.1799 7.59507 21.8876 6.17239L19.4709 4.67255C17.0477 3.16868 15.8361 2.41675 14.4974 2.41675C13.1587 2.41675 11.9471 3.16868 9.52393 4.67255L7.10726 6.1724C4.81496 7.59507 3.6688 8.30642 3.04143 9.45256ZM11.412 18.6054C11.01 18.3073 10.4424 18.3916 10.1443 18.7938C9.8463 19.1959 9.93064 19.7635 10.3327 20.0614C11.5077 20.9324 12.9447 21.448 14.4974 21.448C16.0501 21.448 17.4871 20.9324 18.662 20.0614C19.0642 19.7635 19.1485 19.1959 18.8504 18.7938C18.5524 18.3916 17.9849 18.3073 17.5828 18.6054C16.7026 19.2577 15.6404 19.6355 14.4974 19.6355C13.3544 19.6355 12.2922 19.2577 11.412 18.6054Z" fill="white"/>
</svg>
