<svg width="25" height="25" viewBox="0 0 25 25" fill="none" xmlns="http://www.w3.org/2000/svg">
<path fill-rule="evenodd" clip-rule="evenodd" d="M16.3386 3.99109C17.25 2.93485 17.8643 1.46372 17.6961 0C16.3828 0.05 14.794 0.838933 13.8523 1.89392C13.0067 2.83016 12.2685 4.32612 12.467 5.76111C13.932 5.86985 15.4273 5.04856 16.3386 3.99109ZM19.6237 13.2812C19.6604 17.0649 23.0871 18.3236 23.125 18.3398C23.0972 18.4286 22.5777 20.1333 21.32 21.8958C20.2317 23.4182 19.103 24.9345 17.3245 24.967C15.5777 24.9983 15.0152 23.9746 13.0168 23.9746C11.0197 23.9746 10.3953 24.9344 8.742 24.9982C7.02549 25.0594 5.71726 23.351 4.62137 21.8335C2.37904 18.7298 0.666332 13.0626 2.9668 9.23767C4.10945 7.33895 6.1508 6.13474 8.36785 6.10474C10.0528 6.07349 11.6441 7.19116 12.6743 7.19116C13.7044 7.19116 15.6384 5.84742 17.6709 6.04492C18.5215 6.07867 20.9105 6.37357 22.4437 8.52478C22.3198 8.59853 19.5934 10.1188 19.6237 13.2812Z" fill="white"/>
</svg>
